<?xml version="1.0" standalone="no"?>
<!DOCTYPE svg PUBLIC "-//W3C//DTD SVG 20010904//EN"
 "http://www.w3.org/TR/2001/REC-SVG-20010904/DTD/svg10.dtd">
<svg version="1.0" xmlns="http://www.w3.org/2000/svg"
 width="304.000000pt" height="304.000000pt" viewBox="0 0 304.000000 304.000000"
 preserveAspectRatio="xMidYMid meet">
<metadata>
Created by potrace 1.11, written by Peter Selinger 2001-2013
</metadata>
<g transform="translate(0.000000,304.000000) scale(0.100000,-0.100000)"
fill="#000000" stroke="none">
<path d="M1380 3029 c-156 -16 -291 -50 -433 -108 -83 -34 -237 -115 -271
-142 -6 -5 -38 -29 -71 -53 -71 -53 -193 -170 -257 -246 -117 -141 -247 -388
-284 -540 -2 -8 -10 -39 -18 -68 -46 -166 -51 -470 -12 -647 2 -11 9 -41 15
-67 37 -159 135 -372 238 -517 70 -97 208 -244 278 -296 22 -17 42 -33 45 -36
10 -13 176 -117 225 -141 110 -55 266 -109 389 -134 205 -42 489 -33 686 22
257 72 482 201 663 378 100 98 149 157 215 259 270 414 321 935 138 1390 -47
114 -68 156 -133 257 -203 313 -526 551 -874 641 -179 46 -379 64 -539 48z"/>
</g>
</svg>
